<mxfile host="app.diagrams.net" modified="2022-08-10T06:06:23.767Z" agent="5.0 (Windows NT 10.0; Win64; x64) AppleWebKit/537.36 (KHTML, like Gecko) Chrome/104.0.0.0 Safari/537.36" etag="mQj1rJnHzn6yLCvTtwgO" version="20.2.2" type="github">
  <diagram id="rKeW-D6Mr9I9j17QyvKW" name="第 1 页">
    <mxGraphModel dx="1038" dy="482" grid="1" gridSize="10" guides="1" tooltips="1" connect="1" arrows="1" fold="1" page="1" pageScale="1" pageWidth="2000" pageHeight="1169" math="0" shadow="0">
      <root>
        <mxCell id="0" />
        <mxCell id="1" parent="0" />
        <mxCell id="5P9jYSG-ZSAyytJI-owy-15" style="edgeStyle=orthogonalEdgeStyle;rounded=0;orthogonalLoop=1;jettySize=auto;html=1;exitX=1;exitY=0.5;exitDx=0;exitDy=0;entryX=0;entryY=0.5;entryDx=0;entryDy=0;fillColor=#ffff88;strokeColor=#36393d;" edge="1" parent="1" source="5P9jYSG-ZSAyytJI-owy-7" target="5P9jYSG-ZSAyytJI-owy-13">
          <mxGeometry relative="1" as="geometry" />
        </mxCell>
        <mxCell id="5P9jYSG-ZSAyytJI-owy-7" value="A" style="rounded=1;whiteSpace=wrap;html=1;fillColor=#ffff88;strokeColor=#36393d;shadow=0;sketch=0;glass=0;" vertex="1" parent="1">
          <mxGeometry x="440" y="170" width="40" height="30" as="geometry" />
        </mxCell>
        <mxCell id="5P9jYSG-ZSAyytJI-owy-8" style="edgeStyle=orthogonalEdgeStyle;rounded=0;orthogonalLoop=1;jettySize=auto;html=1;exitX=1;exitY=0.5;exitDx=0;exitDy=0;entryX=0;entryY=0.5;entryDx=0;entryDy=0;" edge="1" parent="1" source="5P9jYSG-ZSAyytJI-owy-9" target="5P9jYSG-ZSAyytJI-owy-7">
          <mxGeometry relative="1" as="geometry" />
        </mxCell>
        <mxCell id="5P9jYSG-ZSAyytJI-owy-9" value="Data 1" style="shape=hexagon;perimeter=hexagonPerimeter2;whiteSpace=wrap;html=1;fixedSize=1;fillColor=#dae8fc;strokeColor=#6c8ebf;" vertex="1" parent="1">
          <mxGeometry x="340" y="165" width="60" height="40" as="geometry" />
        </mxCell>
        <mxCell id="5P9jYSG-ZSAyytJI-owy-11" style="edgeStyle=orthogonalEdgeStyle;rounded=0;orthogonalLoop=1;jettySize=auto;html=1;exitX=1;exitY=0.5;exitDx=0;exitDy=0;entryX=0;entryY=0.5;entryDx=0;entryDy=0;fillColor=#ffff88;strokeColor=#36393d;" edge="1" parent="1" source="5P9jYSG-ZSAyytJI-owy-12">
          <mxGeometry relative="1" as="geometry">
            <mxPoint x="440" y="255" as="targetPoint" />
          </mxGeometry>
        </mxCell>
        <mxCell id="5P9jYSG-ZSAyytJI-owy-12" value="Data 2" style="shape=hexagon;perimeter=hexagonPerimeter2;whiteSpace=wrap;html=1;fixedSize=1;fillColor=#dae8fc;strokeColor=#6c8ebf;" vertex="1" parent="1">
          <mxGeometry x="340" y="235" width="60" height="40" as="geometry" />
        </mxCell>
        <mxCell id="5P9jYSG-ZSAyytJI-owy-16" style="edgeStyle=orthogonalEdgeStyle;rounded=0;orthogonalLoop=1;jettySize=auto;html=1;exitX=1;exitY=0.5;exitDx=0;exitDy=0;entryX=0;entryY=0.5;entryDx=0;entryDy=0;fillColor=#ffff88;strokeColor=#36393d;" edge="1" parent="1" source="5P9jYSG-ZSAyytJI-owy-13" target="5P9jYSG-ZSAyytJI-owy-14">
          <mxGeometry relative="1" as="geometry" />
        </mxCell>
        <mxCell id="5P9jYSG-ZSAyytJI-owy-13" value="B" style="rounded=1;whiteSpace=wrap;html=1;fillColor=#ffff88;strokeColor=#36393d;shadow=0;sketch=0;glass=0;" vertex="1" parent="1">
          <mxGeometry x="520" y="170" width="40" height="30" as="geometry" />
        </mxCell>
        <mxCell id="5P9jYSG-ZSAyytJI-owy-14" value="C" style="rounded=1;whiteSpace=wrap;html=1;fillColor=#ffff88;strokeColor=#36393d;shadow=0;sketch=0;glass=0;" vertex="1" parent="1">
          <mxGeometry x="600" y="170" width="40" height="30" as="geometry" />
        </mxCell>
        <mxCell id="5P9jYSG-ZSAyytJI-owy-17" style="edgeStyle=orthogonalEdgeStyle;rounded=0;orthogonalLoop=1;jettySize=auto;html=1;exitX=1;exitY=0.5;exitDx=0;exitDy=0;entryX=0;entryY=0.5;entryDx=0;entryDy=0;fillColor=#cdeb8b;strokeColor=#36393d;" edge="1" parent="1" source="5P9jYSG-ZSAyytJI-owy-18" target="5P9jYSG-ZSAyytJI-owy-20">
          <mxGeometry relative="1" as="geometry" />
        </mxCell>
        <mxCell id="5P9jYSG-ZSAyytJI-owy-18" value="A" style="rounded=1;whiteSpace=wrap;html=1;fillColor=#cdeb8b;strokeColor=#36393d;shadow=0;sketch=0;glass=0;" vertex="1" parent="1">
          <mxGeometry x="440" y="240" width="40" height="30" as="geometry" />
        </mxCell>
        <mxCell id="5P9jYSG-ZSAyytJI-owy-19" style="edgeStyle=orthogonalEdgeStyle;rounded=0;orthogonalLoop=1;jettySize=auto;html=1;exitX=1;exitY=0.5;exitDx=0;exitDy=0;entryX=0;entryY=0.5;entryDx=0;entryDy=0;fillColor=#cdeb8b;strokeColor=#36393d;" edge="1" parent="1" source="5P9jYSG-ZSAyytJI-owy-20" target="5P9jYSG-ZSAyytJI-owy-21">
          <mxGeometry relative="1" as="geometry" />
        </mxCell>
        <mxCell id="5P9jYSG-ZSAyytJI-owy-20" value="B" style="rounded=1;whiteSpace=wrap;html=1;fillColor=#cdeb8b;strokeColor=#36393d;shadow=0;sketch=0;glass=0;" vertex="1" parent="1">
          <mxGeometry x="520" y="240" width="40" height="30" as="geometry" />
        </mxCell>
        <mxCell id="5P9jYSG-ZSAyytJI-owy-21" value="C" style="rounded=1;whiteSpace=wrap;html=1;fillColor=#cdeb8b;strokeColor=#36393d;shadow=0;sketch=0;glass=0;" vertex="1" parent="1">
          <mxGeometry x="600" y="240" width="40" height="30" as="geometry" />
        </mxCell>
      </root>
    </mxGraphModel>
  </diagram>
</mxfile>
